<svg width="31" height="30" viewBox="0 0 31 30" fill="none" xmlns="http://www.w3.org/2000/svg">
<path d="M24.8721 10.676H21.9884M21.9884 10.676H19.1047M21.9884 10.676V7.7923M21.9884 10.676V13.5597" stroke="#02A9A6" stroke-width="1.5" stroke-linecap="round"/>
<path d="M11.874 25.5025C12.6674 26.1413 13.2553 26.5934 13.7588 26.8902C14.1985 27.1494 14.5858 27.2961 15 27.3589V28.5289C13.6393 28.3765 12.6119 27.599 11.1416 26.4068L11.874 25.5025ZM19.4932 25.9547L19.4922 25.9566L19.8584 26.4068C18.3885 27.5986 17.3607 28.3765 16 28.5289V27.3589C16.4144 27.2959 16.8025 27.1487 17.2422 26.8892C17.7454 26.5922 18.3322 26.139 19.125 25.5005L19.4932 25.9547ZM7.61719 21.7183C8.72689 22.8242 9.88914 23.8759 11.0986 24.8716L10.3662 25.775C9.121 24.7512 7.92549 23.6679 6.78516 22.5289L7.61719 21.7183ZM30.4844 11.6314C30.3196 14.35 28.8382 17.0605 26.9482 19.4703C25.0511 21.889 22.685 24.0763 20.6318 25.7711L19.8994 24.8687C21.9155 23.204 24.2084 21.0781 26.0322 18.7515C27.8542 16.4271 29.1534 13.9753 29.3184 11.6314H30.4844ZM6.25098 21.6529C6.25828 21.6072 6.27006 21.562 6.28809 21.5191C6.31828 21.4473 6.36314 21.3821 6.41895 21.3277C6.47471 21.2735 6.5408 21.2309 6.61328 21.2027C6.65671 21.1858 6.70207 21.1756 6.74805 21.1695L6.25098 21.6529ZM3.49512 17.1197C3.47809 17.1598 3.45827 17.1985 3.43262 17.2339C3.38703 17.2968 3.32916 17.35 3.2627 17.3902C3.1963 17.4304 3.12269 17.4571 3.0459 17.4683C3.0025 17.4746 2.95853 17.4738 2.91504 17.4703L3.49512 17.1197ZM1.68262 11.6343C1.786 13.1048 2.33398 14.6229 3.19141 16.1343L2.64062 16.4683L2.19629 16.7359C1.26235 15.0957 0.621766 13.3691 0.516602 11.6343H1.68262ZM5.64551 1.92242C8.37781 0.853207 11.7106 1.54906 14.7676 4.2193C14.6258 4.36084 14.4843 4.5055 14.3447 4.65485L14.0029 5.02008L14.3682 5.36188L14.7676 5.73492L14.7266 5.77301C11.6895 2.72524 8.481 2.0608 6.06934 3.00543C3.66166 3.94977 1.81264 6.58708 1.67188 10.6343H0.508789C0.646959 6.38093 2.54827 3.29089 5.36035 2.04156L5.64551 1.92242ZM16.2305 4.21832C19.2874 1.5464 22.6199 0.852012 25.3525 1.92242H25.3535C28.3226 3.08422 30.3484 6.23725 30.4912 10.6314H29.3281C29.1873 6.58576 27.3385 3.94748 24.9307 3.00446C22.5187 2.05972 19.3095 2.72485 16.2725 5.77301L16.2324 5.7359L16.6318 5.36383L16.9971 5.02203L16.6553 4.6568C16.5149 4.50664 16.3731 4.3606 16.2305 4.21832ZM15.5771 4.97906L15.5 5.05035L15.4219 4.97711C15.4472 4.95156 15.4736 4.92718 15.499 4.90192C15.5249 4.92766 15.5513 4.95303 15.5771 4.97906Z" fill="#02A9A6" stroke="#02A9A6"/>
</svg>
